<?xml version="1.0" encoding="utf-8"?>
<!-- Generator: Adobe Illustrator 26.5.0, SVG Export Plug-In . SVG Version: 6.00 Build 0)  -->
<svg version="1.1" id="레이어_1" xmlns="http://www.w3.org/2000/svg" xmlns:xlink="http://www.w3.org/1999/xlink" x="0px"
	 y="0px" viewBox="0 0 400 200" style="enable-background:new 0 0 400 200;" xml:space="preserve">
<style type="text/css">
	.st0{fill:none;stroke:#000000;stroke-width:6;stroke-linecap:round;stroke-linejoin:round;stroke-miterlimit:10;}
</style>
<polyline class="st0" points="60.74,80.06 59.33,100.91 58.13,118.86 84.31,115.64 88.07,79.54 "/>
<line class="st0" x1="62.96" y1="101.14" x2="83.5" y2="97.92"/>
<line class="st0" x1="106.4" y1="67.81" x2="106.53" y2="122.34"/>
<polygon class="st0" points="127,69.62 127,100.23 149.16,93.79 149.16,64.39 "/>
<line class="st0" x1="167.02" y1="53.67" x2="167.44" y2="82.31"/>
<polyline class="st0" points="151.41,106.97 177.75,96.21 177.75,117.15 147.14,123.6 147.14,146.15 179.91,143.55 "/>
<path class="st0" d="M194.58,77.34"/>
<path class="st0" d="M223.18,92.24"/>
<path class="st0" d="M225.6,70.09"/>
<path class="st0" d="M223.18,92.24"/>
<polygon class="st0" points="223.18,92.24 225.6,70.09 194.58,77.34 207.07,104.73 "/>
<line class="st0" x1="236.9" y1="77.34" x2="252.59" y2="77.34"/>
<line class="st0" x1="252.67" y1="59.52" x2="254.04" y2="92.88"/>
<line class="st0" x1="246.99" y1="103.95" x2="228.14" y2="130.77"/>
<line class="st0" x1="240.45" y1="116.13" x2="257.83" y2="127.27"/>
<polyline class="st0" points="296.07,76.17 292.87,80.6 276.15,103.69 "/>
<line class="st0" x1="305.43" y1="100.23" x2="291.41" y2="82.61"/>
<polyline class="st0" points="322.97,72.07 321.77,93.46 320.43,117.36 "/>
<path class="st0" d="M319.13,97.92"/>
<line class="st0" x1="321.97" y1="93.49" x2="341.69" y2="91.75"/>
</svg>
