<?xml version="1.0" encoding="utf-8"?>
<!-- Generator: Adobe Illustrator 26.5.0, SVG Export Plug-In . SVG Version: 6.00 Build 0)  -->
<svg version="1.1" id="레이어_1" xmlns="http://www.w3.org/2000/svg" xmlns:xlink="http://www.w3.org/1999/xlink" x="0px"
	 y="0px" viewBox="0 0 300 300" style="enable-background:new 0 0 300 300;" xml:space="preserve">
<style type="text/css">
	.st0{fill:none;stroke:#231815;stroke-width:6;stroke-linecap:round;stroke-linejoin:round;stroke-miterlimit:10;}
</style>
<path class="st0" d="M148.93,70.67c0,0,28.66-59.37,87.67-47.7s54.11,78.36,54.11,78.36s-0.79,37.61-30.71,85.25
	c-29.93,47.7-79.99,92.51-89.72,92.51c-9.67,0-172.92-78.78-160.4-178.96S126.74,30.28,148.93,70.67z"/>
<polyline class="st0" points="106.85,104.95 105.76,121.33 104.8,135.6 125.53,133.06 128.56,104.28 "/>
<line class="st0" x1="108.6" y1="121.51" x2="124.93" y2="118.98"/>
<line class="st0" x1="148.15" y1="95.21" x2="138.35" y2="137.36"/>
<polygon class="st0" points="159.45,102.35 159.45,126.65 176.99,121.51 176.99,98.24 "/>
<line class="st0" x1="188.41" y1="90.01" x2="194.4" y2="112.02"/>
<polyline class="st0" points="176.99,132.7 199.66,123.45 199.66,140.08 175.41,145.22 175.41,163.05 203.53,160.81 "/>
<path class="st0" d="M97.12,168.86"/>
<path class="st0" d="M119.79,180.65"/>
<path class="st0" d="M121.72,163.05"/>
<path class="st0" d="M119.79,180.65"/>
<polygon class="st0" points="119.79,180.65 121.72,163.05 97.12,168.86 107.03,190.56 "/>
<line class="st0" x1="131.22" y1="168.86" x2="143.13" y2="168.86"/>
<line class="st0" x1="141.92" y1="155.49" x2="145.55" y2="180.65"/>
<line class="st0" x1="149.9" y1="191.71" x2="128.56" y2="207.13"/>
<line class="st0" x1="141.56" y1="199.33" x2="151.23" y2="211.84"/>
<line class="st0" x1="176.8" y1="173.33" x2="160.48" y2="195.82"/>
<line class="st0" x1="186.3" y1="194.73" x2="173.3" y2="178.41"/>
<polyline class="st0" points="198.51,173.09 195.31,190.56 191.74,209.79 "/>
<path class="st0" d="M195.31,190.56"/>
<line class="st0" x1="195.31" y1="190.56" x2="211.57" y2="189.11"/>
</svg>
