<?xml version="1.0" encoding="utf-8"?>
<!-- Generator: Adobe Illustrator 26.5.0, SVG Export Plug-In . SVG Version: 6.00 Build 0)  -->
<svg version="1.1" id="레이어_1" xmlns="http://www.w3.org/2000/svg" xmlns:xlink="http://www.w3.org/1999/xlink" x="0px"
	 y="0px" viewBox="0 0 300 300" style="enable-background:new 0 0 300 300;" xml:space="preserve">
<style type="text/css">
	.st0{fill:none;stroke:#FFF292;stroke-width:6;stroke-linecap:round;stroke-linejoin:round;stroke-miterlimit:10;}
	.st1{fill:none;stroke:#F3A7AE;stroke-width:6;stroke-linecap:round;stroke-linejoin:round;stroke-miterlimit:10;}
	.st2{fill:none;stroke:#B1D2B4;stroke-width:6;stroke-linecap:round;stroke-linejoin:round;stroke-miterlimit:10;}
	.st3{fill:none;stroke:#B1AFFF;stroke-width:6;stroke-linecap:round;stroke-linejoin:round;stroke-miterlimit:10;}
	.st4{fill:none;stroke:#231815;stroke-width:6;stroke-linecap:round;stroke-linejoin:round;stroke-miterlimit:10;}
	.st5{fill:none;stroke:#90D3F1;stroke-width:6;stroke-linecap:round;stroke-linejoin:round;stroke-miterlimit:10;}
</style>
<path class="st0" d="M148.9,70.7c0,0,28.7-59.4,87.7-47.7s54.1,78.4,54.1,78.4s-0.8,37.6-30.7,85.2c-29.9,47.7-80,92.5-89.7,92.5
	c-9.7,0-172.9-78.8-160.4-179S126.7,30.3,148.9,70.7z"/>
<polyline class="st1" points="106.8,104.9 105.8,121.3 104.8,135.6 125.5,133.1 128.6,104.3 "/>
<line class="st1" x1="108.6" y1="121.5" x2="124.9" y2="119"/>
<line class="st1" x1="148.1" y1="95.2" x2="138.4" y2="137.4"/>
<polygon class="st2" points="159.4,102.3 159.4,126.7 177,121.5 177,98.2 "/>
<line class="st2" x1="188.4" y1="90" x2="194.4" y2="112"/>
<polyline class="st2" points="177,132.7 199.7,123.4 199.7,140.1 175.4,145.2 175.4,163.1 203.5,160.8 "/>
<path class="st3" d="M97.1,168.9"/>
<path class="st3" d="M119.8,180.6"/>
<path class="st4" d="M121.7,163.1"/>
<path class="st3" d="M119.8,180.6"/>
<polygon class="st3" points="119.8,180.6 121.7,163.1 97.1,168.9 107,190.6 "/>
<line class="st3" x1="131.2" y1="168.9" x2="143.1" y2="168.9"/>
<line class="st3" x1="141.9" y1="155.5" x2="145.6" y2="180.6"/>
<line class="st3" x1="149.9" y1="191.7" x2="128.6" y2="207.1"/>
<line class="st3" x1="141.6" y1="199.3" x2="151.2" y2="211.8"/>
<line class="st5" x1="176.8" y1="173.3" x2="160.5" y2="195.8"/>
<line class="st5" x1="186.3" y1="194.7" x2="173.3" y2="178.4"/>
<polyline class="st5" points="198.5,173.1 195.3,190.6 191.7,209.8 "/>
<path class="st5" d="M195.3,190.6"/>
<line class="st5" x1="195.3" y1="190.6" x2="211.6" y2="189.1"/>
</svg>
