<?xml version="1.0" encoding="utf-8"?>
<!-- Generator: Adobe Illustrator 26.5.0, SVG Export Plug-In . SVG Version: 6.00 Build 0)  -->
<svg version="1.1" id="레이어_2" xmlns="http://www.w3.org/2000/svg" xmlns:xlink="http://www.w3.org/1999/xlink" x="0px"
	 y="0px" viewBox="0 0 800 800" style="enable-background:new 0 0 800 800;" xml:space="preserve">
<style type="text/css">
	.st0{fill:none;stroke:#231815;stroke-width:6;stroke-linecap:round;stroke-linejoin:round;stroke-miterlimit:10;}
</style>
<path class="st0" d="M399.8,257.5c0,0,47.4-98.2,145-78.9s89.5,129.6,89.5,129.6s-1.3,62.2-50.8,141c-49.5,78.9-132.3,153-148.4,153
	c-16,0-286-130.3-265.3-296S363.1,190.7,399.8,257.5z"/>
<polyline class="st0" points="330.2,314.2 328.4,341.3 326.8,364.9 361.1,360.7 366.1,313.1 "/>
<line class="st0" x1="333.1" y1="341.6" x2="360.1" y2="337.4"/>
<line class="st0" x1="398.5" y1="298.1" x2="382.3" y2="367.8"/>
<polygon class="st0" points="417.2,309.9 417.2,350.1 446.2,341.6 446.2,303.1 "/>
<line class="st0" x1="465.1" y1="289.5" x2="475" y2="325.9"/>
<polyline class="st0" points="446.2,360.1 483.7,344.8 483.7,372.3 443.6,380.8 443.6,410.3 490.1,406.6 "/>
<path class="st0" d="M314.1,419.9"/>
<path class="st0" d="M351.6,439.4"/>
<path class="st0" d="M354.8,410.3"/>
<path class="st0" d="M351.6,439.4"/>
<polygon class="st0" points="351.6,439.4 354.8,410.3 314.1,419.9 330.5,455.8 "/>
<line class="st0" x1="370.5" y1="419.9" x2="390.2" y2="419.9"/>
<line class="st0" x1="388.2" y1="397.8" x2="394.2" y2="439.4"/>
<line class="st0" x1="401.4" y1="457.7" x2="366.1" y2="483.2"/>
<line class="st0" x1="387.6" y1="470.3" x2="403.6" y2="491"/>
<line class="st0" x1="445.9" y1="427.3" x2="418.9" y2="464.5"/>
<line class="st0" x1="461.6" y1="462.7" x2="440.1" y2="435.7"/>
<polyline class="st0" points="481.8,426.9 476.5,455.8 470.6,487.6 "/>
<path class="st0" d="M476.5,455.8"/>
<line class="st0" x1="476.5" y1="455.8" x2="503.4" y2="453.4"/>
</svg>
